<svg width="205" height="64" viewBox="0 0 205 64" fill="none" xmlns="http://www.w3.org/2000/svg">
<g clip-path="url(#clip0_520_51357)">
<path d="M32.9464 0C14.751 0 0 14.328 0 32.0018C0 49.6756 14.751 64 32.9464 64C51.1419 64 65.8929 49.6756 65.8929 32.0018C65.8929 14.328 51.1419 0 32.9464 0ZM62.3094 38.5729L58.2714 37.5185L57.7267 39.5033L61.7647 40.5541C61.1975 42.3602 60.4575 44.0896 59.5598 45.7278L55.9387 43.6992L54.8832 45.4761L58.5043 47.5084C57.4788 49.0991 56.3031 50.5841 54.9921 51.9487L52.0397 49.0809L50.5447 50.533L53.4971 53.4008C52.0923 54.6742 50.5635 55.8199 48.9257 56.8159L46.8335 53.2987L45.0041 54.3239L47.0964 57.8448C45.4098 58.7168 43.6256 59.4393 41.77 59.9902L40.6844 56.0643L38.6447 56.5933L39.7266 60.5192C37.8785 60.9315 35.9665 61.1796 34.0095 61.2453V57.1844H31.8947V61.2453C29.9377 61.1796 28.0219 60.9315 26.1776 60.5192L27.2594 56.5933L25.2197 56.0643L24.1342 59.9902C22.2748 59.4429 20.4943 58.7205 18.8078 57.8448L20.9 54.3239L19.0707 53.2987L16.9784 56.8159C15.3445 55.8199 13.8119 54.6742 12.407 53.4008L15.3595 50.533L13.8682 49.0809L10.9158 51.9487C9.60484 50.5841 8.42536 49.0955 7.40365 47.5047L11.021 45.4761L9.96544 43.6992L6.34438 45.7278C5.44662 44.0896 4.70288 42.3565 4.13943 40.5541L8.17745 39.5033L7.63279 37.5185L3.59477 38.5729C3.17031 36.7778 2.91488 34.9207 2.85103 33.0198H7.02427V30.9656H2.83976C2.90737 29.0647 3.1628 27.2076 3.58726 25.4125L7.62152 26.4596L8.16618 24.4784L4.13568 23.4313C4.70288 21.6252 5.44287 19.8958 6.34438 18.2576L9.95793 20.2862L11.0134 18.5093L7.40365 16.4844C8.42912 14.8972 9.60484 13.4086 10.9158 12.044L13.8607 14.9045L15.352 13.456L12.4108 10.5955C13.8156 9.32216 15.3445 8.1765 16.9784 7.18408L19.0632 10.6904L20.8925 9.66513L18.8078 6.15518C20.4943 5.28317 22.2748 4.56439 24.1342 4.01345L25.2122 7.92475L27.2519 7.3957L26.1738 3.48441C28.0219 3.07212 29.9301 2.82401 31.8909 2.75834V6.80463H34.0057V2.75469C35.9627 2.82036 37.8747 3.06847 39.7228 3.48076L38.6447 7.39205L40.6844 7.9211L41.7625 4.00981C43.6218 4.56074 45.3986 5.27952 47.0889 6.15153L45.0041 9.66148L46.8335 10.6867L48.9182 7.18043C50.5522 8.17285 52.081 9.31851 53.4858 10.5919L50.5409 13.4524L52.0359 14.9009L54.9809 12.0404C56.2918 13.4049 57.4675 14.8899 58.493 16.4807L54.8832 18.5057L55.9387 20.2825L59.5523 18.2539C60.4538 19.8921 61.1938 21.6252 61.761 23.4276L57.7305 24.4748L58.2751 26.456L62.3094 25.4088C62.7338 27.2039 62.9893 29.0574 63.0569 30.962H58.8836V33.0161H63.0569C62.9893 34.9207 62.7376 36.7778 62.3131 38.5693" fill="#BDAD7D"/>
<path d="M32.943 9.51196C20.1566 9.51196 9.79297 19.5784 9.79297 31.9983C9.79297 44.4181 20.1566 54.4882 32.943 54.4882C45.7294 54.4882 56.0968 44.4181 56.0968 31.9983C56.0968 19.5784 45.7294 9.51196 32.943 9.51196ZM32.9843 53.4812C20.7914 53.5067 10.856 43.8963 10.8297 32.0493C10.8072 20.206 20.6975 10.5445 32.8942 10.519C45.0946 10.4934 55.0375 20.1148 55.06 31.9581C55.0863 43.8051 45.181 53.4556 32.9843 53.4775" fill="#BDAD7D"/>
<path d="M27.1166 25.8145V38.2525H24.7652L18.6612 30.1818V38.2525H16.152V27.4965L14.6758 25.8765V25.8145H18.3945L24.6037 33.9034V25.8145H27.1166Z" fill="#BDAD7D"/>
<path d="M38.1675 31.5498C38.066 31.5097 37.9233 31.4622 37.9233 31.4622C37.9233 31.4622 38.0811 31.4184 38.1487 31.371C39.0014 30.8602 39.4333 30.0831 39.4333 28.8863C39.4333 27.8501 39.1817 27.27 38.4154 26.6461C37.7918 26.1389 36.6161 25.8105 35.0009 25.8105H28.957V25.9273L30.6661 27.5035V38.2523H34.9746C36.7927 38.2523 37.9609 37.9239 38.8361 37.3255C39.7038 36.7271 40.117 35.7384 40.117 34.5161C40.117 33.0567 39.4108 31.984 38.1675 31.5461V31.5498ZM33.3594 27.8027H34.8469C36.3194 27.9012 36.6612 28.5871 36.6612 29.3278C36.6612 30.3166 36.0377 30.8894 34.7605 30.8894H33.3632V27.8027H33.3594ZM34.9633 36.2455H33.3594V32.6772H35.0497C36.5598 32.6772 37.2171 33.3121 37.2171 34.5088C37.2171 35.7055 36.4508 36.2455 34.9596 36.2455" fill="#BDAD7D"/>
<path d="M51.0155 27.1569C50.4257 26.522 49.6407 25.8105 46.7972 25.8105H41.0312V25.9273L42.7479 27.5035V38.2523H45.4374V33.6003L45.5951 33.6185C45.7454 33.6441 46.5718 33.7243 47.2216 33.7243C48.3034 33.7243 49.7872 33.5529 50.7112 32.7319C51.5601 31.9803 51.8869 31.1557 51.8869 29.7875C51.8869 28.6893 51.639 27.8319 51.0192 27.1532L51.0155 27.1569ZM46.7258 31.7651C46.3239 31.7651 45.8656 31.7578 45.5388 31.6665L45.4411 31.6374V27.8136H46.7596C47.6273 27.8136 49.081 28.0617 49.081 29.7656C49.081 30.9952 48.3109 31.7687 46.722 31.7687" fill="#BDAD7D"/>
<path d="M89.774 27.827L82.7159 20.9202H82.6784V27.4658C82.6784 28.3159 83.0277 28.8231 84.2485 28.8596V29.2755H80.6462V28.8596C81.4764 28.8231 81.7731 28.3159 81.7731 27.4658V19.0594C81.7731 17.9758 81.3674 17.7022 80.2969 17.6657V17.2497H82.6258C82.9939 17.7751 83.4033 18.1911 83.9367 18.6946L91.0699 25.6014H91.1075V19.0558C91.1075 18.2057 90.7732 17.6985 89.5374 17.662V17.2461H93.1584V17.662C92.3283 17.6985 92.0315 18.2057 92.0315 19.0558V27.4622C92.0315 28.1298 92.0315 28.7282 92.0691 29.4142H91.2915C90.9234 28.9617 90.5891 28.6005 89.7778 27.8234" fill="#BDAD7D"/>
<path d="M106.237 28.8595V29.2754H101.38V28.8595C102.47 28.8048 102.583 28.4071 102.229 27.4657L101.249 24.8059C101.121 24.9336 100.843 24.9518 100.584 24.9518H98.3679C97.8496 24.9518 97.6279 25.0066 97.4251 25.5137L96.6663 27.4657C96.3508 28.3159 96.6476 28.8048 97.9209 28.8595V29.2754H94.375V28.8595C95.0023 28.8048 95.3892 28.3159 95.7235 27.4657L99.1605 18.6763C99.4197 18.0451 99.6413 17.4649 99.8066 16.8301H100.806C100.971 17.4649 101.193 18.0414 101.452 18.6763L104.776 27.4657C105.257 28.7136 105.497 28.8048 106.237 28.8595ZM100.881 23.8317L99.4948 20.216H99.4573L97.8871 24.3024C97.9998 24.2294 98.1839 24.2294 98.4055 24.2294H100.547C100.881 24.2294 101.009 24.1565 100.881 23.8317Z" fill="#BDAD7D"/>
<path d="M115.215 27.7552L112.131 23.5593C111.853 23.1798 111.707 23.1069 111.448 23.0886V22.4902C113.72 22.4902 114.644 21.4431 114.644 20.0676C114.644 18.4768 113.48 17.8784 112.282 17.8784C111.433 17.8784 111.08 18.0426 111.08 19.0533V27.4596C111.08 28.671 111.376 28.8169 112.56 28.8534V29.2693H107.552V28.8534C108.383 28.8169 108.679 28.671 108.679 27.4596V19.0533C108.679 17.8419 108.383 17.696 107.203 17.6595V17.2436H108.679C110.471 17.2436 111.729 17.1523 112.687 17.1523C116.012 17.1523 117.214 18.2542 117.214 19.7939C117.214 21.3336 116.012 22.399 114.423 22.7055V22.742L117.785 27.4085C118.634 28.5652 119.096 28.8534 119.723 28.8534V29.2693C119.28 29.4153 118.724 29.47 118.228 29.47C116.601 29.47 115.861 28.6928 115.215 27.7515" fill="#BDAD7D"/>
<path d="M133.061 23.2342C133.061 27.0324 130.27 29.5462 126.818 29.5462C123.366 29.5462 120.594 27.1053 120.594 23.2889C120.594 19.4725 123.385 16.9805 126.837 16.9805C130.289 16.9805 133.061 19.4214 133.061 23.2378V23.2342ZM130.492 23.745C130.492 19.8957 128.643 17.743 126.502 17.743C124.47 17.743 123.159 19.6585 123.159 22.789C123.159 26.642 125.007 28.791 127.148 28.791C129.181 28.791 130.492 26.8755 130.492 23.745Z" fill="#BDAD7D"/>
<path d="M134.732 28.8612C135.544 28.8247 135.859 28.6788 135.859 27.4674V19.0611C135.859 17.8497 135.562 17.7038 134.383 17.6673V17.2514H135.859C137.335 17.2514 138.703 17.1602 139.961 17.1602C144.082 17.1602 146.944 18.8786 146.944 22.8921C146.944 27.161 143.45 29.2735 140.07 29.2735H134.732V28.8576V28.8612ZM144.375 23.1657C144.375 19.3858 142.418 17.8862 139.754 17.8862C138.609 17.8862 138.256 18.0504 138.256 19.0611V27.4674C138.256 28.3905 138.552 28.5511 139.604 28.5511C142.801 28.5511 144.371 26.3254 144.371 23.1621" fill="#BDAD7D"/>
<path d="M161.592 23.2342C161.592 27.0323 158.801 29.5462 155.349 29.5462C151.897 29.5462 149.125 27.1053 149.125 23.2889C149.125 19.4725 151.916 16.9805 155.368 16.9805C158.82 16.9805 161.592 19.4214 161.592 23.2378V23.2342ZM159.023 23.745C159.023 19.8957 157.175 17.743 155.034 17.743C153.002 17.743 151.691 19.6585 151.691 22.789C151.691 26.6419 153.539 28.791 155.68 28.791C157.712 28.791 159.023 26.8755 159.023 23.745Z" fill="#BDAD7D"/>
<path d="M166.601 27.8469L164.163 19.0611C163.814 17.8133 163.611 17.7221 162.961 17.6674V17.2514H167.818L167.799 17.6674C166.616 17.7221 166.451 18.1198 166.71 19.0611L168.501 25.4607H168.539L171.92 17.1055H173.084C173.306 17.7732 173.509 18.3898 173.787 19.0575L176.502 25.4571H176.577L178.444 19.0575C178.704 18.2073 178.279 17.7184 177.096 17.6637L177.115 17.2478H180.698V17.6637C180.123 17.7184 179.699 18.2073 179.44 19.0575L176.889 27.8433C176.724 28.4781 176.649 28.7846 176.54 29.4158H175.375C175.248 28.781 175.116 28.4745 174.857 27.8433L171.736 20.3564H171.698L168.614 27.8433C168.355 28.4927 168.265 28.7846 168.115 29.4158H166.95C166.837 28.781 166.766 28.4745 166.601 27.8433" fill="#BDAD7D"/>
<path d="M191.732 17.25V17.6659C191.176 17.7207 190.751 18.2096 190.252 19.0597L187.941 23.0732C187.739 23.4526 187.592 23.6715 187.592 24.3027V27.4661C187.592 28.6774 187.889 28.8233 189.068 28.8562V29.2721H184.061V28.8562C184.891 28.8197 185.188 28.6738 185.188 27.4661V24.3027C185.188 23.6715 185.094 23.4709 184.873 23.0732L182.562 19.0597C181.86 17.8301 181.62 17.7207 180.898 17.6659V17.25H185.83V17.6659C184.741 17.7207 184.722 18.1366 185.256 19.0597L187.194 22.5332H187.232L189.226 19.0597C189.726 18.1913 189.376 17.7207 188.265 17.6659V17.25H191.72H191.732Z" fill="#BDAD7D"/>
<path d="M80.6462 46.4803C81.4763 46.4439 81.7731 46.2979 81.7731 45.0866V36.6802C81.7731 35.4689 81.4763 35.3229 80.2969 35.2865V34.8705H81.7731C83.7489 34.8705 84.6016 34.7793 86.2806 34.7793C89.0903 34.7793 90.3449 35.7754 90.3449 37.2385C90.3449 38.7015 89.3307 39.5334 87.7944 39.9494V39.9858C90.067 40.1646 91.5056 41.2519 91.5056 43.0944C91.5056 45.1012 89.9543 46.8926 86.4084 46.8926H80.6425V46.4767L80.6462 46.4803ZM85.135 39.9348C86.5962 39.8071 87.8695 39.1029 87.8695 37.4391C87.8695 35.9031 86.6675 35.5054 85.5782 35.5054C84.4889 35.5054 84.1734 35.6696 84.1734 36.6802V40.2048C84.4889 39.9895 84.7293 39.9712 85.135 39.9348ZM89.034 43.1711C89.034 41.3614 87.5728 40.6207 85.7811 40.6207C84.6917 40.6207 84.1734 40.9089 84.1734 41.6861V45.0866C84.1734 46.0097 84.4701 46.1702 85.7059 46.1702C88.1438 46.1702 89.0302 44.6342 89.0302 43.1674" fill="#BDAD7D"/>
<path d="M104.07 46.4789V46.8948H99.2127V46.4789C100.302 46.4242 100.415 46.0265 100.062 45.0851L99.0812 42.4253C98.9535 42.553 98.6755 42.5713 98.4163 42.5713H96.2001C95.6817 42.5713 95.4601 42.626 95.2573 43.1331L94.4985 45.0851C94.1867 45.9353 94.4797 46.4242 95.7569 46.4789V46.8948H92.2109V46.4789C92.8382 46.4242 93.2251 45.9353 93.5594 45.0851L96.9965 36.2957C97.2556 35.6645 97.4773 35.0843 97.6425 34.4531H98.6417C98.807 35.088 99.0286 35.6645 99.2878 36.2957L102.612 45.0851C103.093 46.333 103.333 46.4242 104.07 46.4789ZM98.7131 41.4511L97.327 37.8354H97.2894L95.7193 41.9218C95.8282 41.8488 96.0161 41.8488 96.2377 41.8488H98.3825C98.7168 41.8488 98.8445 41.7759 98.7168 41.4511" fill="#BDAD7D"/>
<path d="M114.551 45.4464L107.493 38.5396H107.456V45.0852C107.456 45.9353 107.805 46.4425 109.026 46.479V46.8949H105.424V46.479C106.254 46.4425 106.55 45.9353 106.55 45.0852V36.6788C106.55 35.5952 106.145 35.3216 105.074 35.2851V34.8691H107.403C107.771 35.3945 108.181 35.8105 108.714 36.3176L115.847 43.2244H115.885V36.6788C115.885 35.8287 115.55 35.3216 114.315 35.2851V34.8691H117.936V35.2851C117.106 35.3216 116.809 35.8287 116.809 36.6788V45.0852C116.809 45.7529 116.809 46.3513 116.846 47.0372H116.069C115.701 46.5848 115.366 46.2236 114.555 45.4464" fill="#BDAD7D"/>
<path d="M127.764 45.3737L124.624 41.072C124.327 40.6926 124.2 40.6013 123.997 40.6013C123.775 40.6013 123.591 40.7473 123.591 41.1815V45.0891C123.591 46.3004 123.888 46.4464 125.067 46.4829V46.8988H120.06V46.4829C120.89 46.4464 121.187 46.3004 121.187 45.0891V36.6827C121.187 35.4714 120.89 35.3255 119.711 35.289V34.873H124.718V35.289C123.888 35.3255 123.591 35.4714 123.591 36.6827V39.9008H123.629L127.693 36.628C128.174 36.2486 128.358 36.0151 128.358 35.7779C128.358 35.4714 128.08 35.3255 127.321 35.289V34.873H131.385V35.289C130.646 35.3802 130.112 35.7414 129.372 36.3398L126.36 38.7624C126.157 38.9266 126.157 39.0908 126.36 39.3608L130.405 45.038C131.235 46.1946 131.716 46.4829 132.325 46.4829V46.8988C131.9 47.0448 131.325 47.0995 130.811 47.0995C129.184 47.0995 128.444 46.3223 127.764 45.381" fill="#BDAD7D"/>
<path d="M138.498 46.4803C139.328 46.4439 139.625 46.2979 139.625 45.0866V36.6802C139.625 35.4689 139.328 35.3229 138.148 35.2865V34.8705H139.625C141.36 34.8705 142.802 34.7793 143.542 34.7793C146.814 34.7793 148.253 36.0271 148.253 37.7091C148.253 39.5371 146.626 41.4161 142.397 41.0549V40.4565C144.778 40.6025 145.684 39.2269 145.684 37.7456C145.684 36.2643 144.632 35.5017 143.208 35.5017C142.378 35.5017 142.025 35.6841 142.025 36.6766V45.0829C142.025 46.2943 142.322 46.4366 143.689 46.4767V46.8926H138.498V46.4767V46.4803Z" fill="#BDAD7D"/>
<path d="M162.553 40.8572C162.553 44.6554 159.762 47.1693 156.31 47.1693C152.858 47.1693 150.082 44.7284 150.082 40.9119C150.082 37.0955 152.873 34.6035 156.325 34.6035C159.777 34.6035 162.553 37.0444 162.553 40.8609V40.8572ZM159.984 41.368C159.984 37.5151 158.136 35.3661 155.994 35.3661C153.962 35.3661 152.651 37.2816 152.651 40.4121C152.651 44.265 154.499 46.414 156.641 46.414C158.673 46.414 159.984 44.4985 159.984 41.368Z" fill="#BDAD7D"/>
<path d="M164.775 46.479C165.586 46.4425 165.902 46.2965 165.902 45.0852V36.6788C165.902 35.4675 165.605 35.3216 164.422 35.2851V34.8691H169.429V35.2851C168.599 35.3216 168.302 35.4675 168.302 36.6788V45.0852C168.302 46.0083 168.599 46.1688 169.707 46.1688H171.112C172.828 46.1688 173.347 45.1728 173.46 43.9797H173.884L173.737 46.8913H164.779V46.4753L164.775 46.479Z" fill="#BDAD7D"/>
<path d="M175.375 44.7972C175.375 44.3265 175.503 43.6771 175.893 43.1334H176.318C176.393 44.9249 177.482 46.388 179.33 46.388C180.957 46.388 181.565 45.3226 181.565 44.3448C181.565 41.342 175.709 41.7761 175.709 37.978C175.709 35.8983 177.463 34.5957 180.142 34.5957C181.453 34.5957 182.542 34.8475 183.192 35.0846V37.8503H182.767C182.362 36.0405 181.4 35.3729 180.014 35.3729C178.444 35.3729 177.869 36.2777 177.869 37.0731C177.869 39.6782 183.725 39.3863 183.725 43.491C183.725 45.8407 181.806 47.1615 179.18 47.1615C177.482 47.1615 175.375 46.5813 175.375 44.7935" fill="#BDAD7D"/>
<path d="M193.651 45.3737L190.511 41.072C190.214 40.6926 190.086 40.6013 189.883 40.6013C189.662 40.6013 189.478 40.7473 189.478 41.1815V45.0891C189.478 46.3004 189.775 46.4464 190.954 46.4829V46.8988H185.947V46.4829C186.777 46.4464 187.074 46.3004 187.074 45.0891V36.6827C187.074 35.4714 186.777 35.3255 185.594 35.289V34.873H190.601V35.289C189.771 35.3255 189.474 35.4714 189.474 36.6827V39.9008H189.512L193.576 36.628C194.057 36.2486 194.241 36.0151 194.241 35.7779C194.241 35.4714 193.963 35.3255 193.204 35.289V34.873H197.268V35.289C196.528 35.3802 195.995 35.7414 195.255 36.3398L192.242 38.7624C192.04 38.9266 192.04 39.0908 192.242 39.3608L196.288 45.038C197.118 46.1946 197.599 46.4829 198.207 46.4829V46.8988C197.783 47.0448 197.212 47.0995 196.694 47.0995C195.067 47.0995 194.331 46.3223 193.643 45.381" fill="#BDAD7D"/>
<path d="M199.564 46.479C200.394 46.4425 200.691 46.2965 200.691 45.0852V36.6788C200.691 35.4675 200.394 35.3216 199.211 35.2851V34.8691H204.218V35.2851C203.388 35.3216 203.091 35.4675 203.091 36.6788V45.0852C203.091 46.2965 203.388 46.4388 204.567 46.479V46.8949H199.56V46.479H199.564Z" fill="#BDAD7D"/>
</g>
<defs>
<clipPath id="clip0_520_51357">
<rect width="204.571" height="64" fill="white"/>
</clipPath>
</defs>
</svg>
